<?xml version="1.0" encoding="UTF-8"?>
<svg xmlns="http://www.w3.org/2000/svg" viewBox="0 0 1096.43 1183.91">
  <defs>
    <style>
      .cls-1 {
        letter-spacing: .1em;
      }

      .cls-2 {
        font-family: ProtestRevolution-Regular, 'Protest Revolution';
        font-size: 161.78px;
      }

      .cls-2, .cls-3 {
        fill: #111827;
      }

      .cls-4 {
        fill: #374151;
        stroke: #374151;
      }

      .cls-4, .cls-5, .cls-3 {
        stroke-miterlimit: 10;
      }

      .cls-6 {
        letter-spacing: .1em;
      }

      .cls-5 {
        fill: #fff;
        stroke: #000;
      }

      .cls-3 {
        stroke: #111827;
      }

      .cls-7 {
        letter-spacing: .06em;
      }

      .cls-8 {
        letter-spacing: .09em;
      }
    </style>
  </defs>
  <g id="Layer_6" data-name="Layer 6">
    <ellipse class="cls-5" cx="551.28" cy="535.07" rx="496.94" ry="490.66"/>
  </g>
  <g id="Layer_2" data-name="Layer 2">
    <path class="cls-4" d="M170.44,660.09c-3.34-12.97-52.61-219.37,94.54-374.14,126.15-132.68,296.56-122.12,319.28-120.32,1.96-7.55,4.71-16.09,8.63-25.23,5.23-12.21,11.19-22.31,16.66-30.3-42.54-5.38-132.29-10.74-232.6,31.3-24.98,10.47-100.42,44.76-168.3,122.86-75.28,86.6-96.66,175.77-100.62,193.21-22.25,98.05-4.09,178.94,7.31,217.48,6.59,10.92,19.17,16.6,31.21,14.25,13.44-2.63,23.58-14.76,23.89-29.11Z"/>
    <path class="cls-4" d="M831.38,279.08c4.73-5.78,10.57-14.15,15.37-25.17,5.35-12.31,7.43-23.41,8.28-31.3,30.75,27.68,103.39,100.58,135.14,220.57,26.96,101.87,11.05,187.09.77,227.39-6.36,15.8-23.38,23.54-37.45,18.75-11.33-3.86-19.35-15.38-19.52-28.6,8.83-35.33,22.73-111.08-1.23-202.1-24.57-93.35-75.97-153.37-101.35-179.54Z"/>
    <path class="cls-4" d="M773.12,101.9v84.92l-55.01,31.07-53.01-31.07v-84.92c-3.78,2.22-52.79,32.21-55.56,89.5-2.15,44.58,24.59,87.09,67.43,106.44.77,118.33,1.55,236.68,2.32,355.01,3.05,21.06,21.47,36.35,41.86,35.58,18.97-.73,35.36-15.21,38.56-34.68.19-118.59.38-237.18.57-355.77,41.86-18.41,68.67-59.44,67.83-103.46-1.13-59.34-51.88-90.76-54.99-92.61ZM720.47,660.46c-7.72,0-13.98-6.25-13.98-13.98s6.25-13.98,13.98-13.98,13.98,6.27,13.98,13.98-6.25,13.98-13.98,13.98Z"/>
  </g>
  <g id="Layer_4" data-name="Layer 4">
    <path class="cls-3" d="M596.12,251.7c-26.51-.22-53.01-.44-79.52-.66-18.69,2.84-46.4,9.42-75.28,26.08-53.93,31.11-76.85,77.12-84.7,95.37-11.31-1.25-22.63-2.49-33.94-3.74l-18.63-46.08c-21.79-.21-43.57-.43-65.36-.64,4.56,12.22,9.12,24.44,13.68,36.65,17.89-.38,35.78-.76,53.67-1.14,2.14,2.16,4.68,5.42,3.99,8.72-1.62,7.81-19.42,6.9-31.63,13.36-22.22,11.76-23.58,46.62-24.93,81.29-.96,24.69,1.56,41.95,6.41,75.11,5.32,36.33,10.1,54.11,16.34,71.52,2.53,7.05,14.84,38.88,50.7,55.67,22.31,10.45,43.21,10.15,53.14,9.37-56.5-14.05-77.39-42.39-84-52.87-8.91-14.14-12.86-39.22-21.22-89.13-.18-1.1-3.26-19.71-5.7-44.89-2.83-29.26-2.74-46.09,1.83-64.46,4.68-18.84,10.44-24.71,14.94-27.86,7.11-4.98,14.82-5.78,28.84-7.07,9.04-.83,21.48-1.26,36.37.42,24.86,1.83,49.86,3.8,75.02,5.9,75.71,6.33,149.94,13.65,222.63,21.85-91.59-12.95-183.18-25.89-274.76-38.84,5.47-14.52,22.05-52.37,64.5-80.6,31.69-21.08,63.17-27.07,79.62-29.08,28.02,0,56.04.02,84.07.03-2.02-4.77-4.04-9.53-6.05-14.3Z"/>
    <path class="cls-3" d="M309.07,422.1c-3.41,6.51-19.17,38.1-3.84,63.79,9.56,16.02,26.57,21.98,58.08,32.54,18.5,6.2,45.75,13.54,80.42,16.64-6.51-12.19-17.51-29.14-35.58-45.58-25.59-23.26-52.77-34.04-68.61-39.02,5.33,5.72,11.26,12.98,16.86,21.86,4.61,7.31,8.05,14.23,10.65,20.34-2.37-.05-34.49-1.25-51.27-26.87-12.82-19.57-7.77-39.78-6.7-43.7Z"/>
    <path class="cls-3" d="M303.79,532.35c68.51-8.19,99.07,15.46,107.4,22.75,19.98,17.48,35.78,48.93,41.68,60.68,13.23,26.35,11.68,33.92,23.27,44.24,4.55,4.06,19.47,15.95,73.12,16.91,23.91.42,59.45-1.26,102.14-12.15-20.17,9.52-55.99,23.22-102.14,23.62-27.78.24-50.19.44-71.81-11.67-43.98-24.63-32.01-70.67-72.06-108.04-16.12-15.05-45.35-33.05-101.6-36.33Z"/>
    <path class="cls-3" d="M346.24,596.79c.99-6.91,1.98-13.81,2.97-20.72.81,5.57,5.7,34.98,33.87,53.65,16.85,11.16,34.08,13.21,42.27,13.66-8.86,1.54-34.18,4.79-57.8-8.87-12.03-6.96-18.8-15.51-23.79-21.95-16.69-21.52-21.25-44.59-22.47-59.52,2.8,7.01,6.45,14.87,11.23,23.19,4.53,7.89,9.24,14.73,13.71,20.56Z"/>
    <path class="cls-3" d="M480.71,502.28c13.48-8.39,30.55,2.25,68.95,14.15,53.41,16.56,99.95,20.37,99.95,20.36,0,0,0,0,0,0-.58-.1-120.98-.97-148.02-14.22-1.05-.51-3.91-2-5.7-.94-4.02,2.37-1.65,16.83,7.09,25.1,6.11,5.78,13.9,7.17,17.08,7.7,18.39,3.05,55.92,8.05,105.2,13.32-34.36,3.35-61.69,1.27-81.09-1.52-18.26-2.63-33.28-6.45-37.18-.61-4.03,6.04,5.23,20.31,17.11,28.27,10.36,6.94,20.71,7.74,51.8,8.63,20.26.58,38.17.87,53.16,1.02-11.78,2.97-28.78,6.21-49.36,6.34-30.16.2-49.54-6.38-52.81-.15-2.59,4.92,6.41,14.98,15.3,20.07,4.77,2.73,9.89,4.26,32.02,5.62,15.53.95,27.78,1.1,35.3,1.18,9.53.1,22.09.2,36.94.24-17.67,4-44.35,8.49-77.18,7.93-16.33-.28-24.5-.41-33.62-3.09-39.14-11.48-61.4-52.5-66.04-85.9-1.6-11.53-5.96-42.88,11.09-53.5Z"/>
  </g>
  <g id="Layer_5" data-name="Layer 5">
    <text class="cls-2" transform="translate(180.76 817.22)"><tspan class="cls-1" x="0" y="0">FIX</tspan><tspan class="cls-8" x="273.41" y="0">M</tspan><tspan class="cls-7" x="406.88" y="0">A</tspan><tspan class="cls-6" x="512.53" y="0" xml:space="preserve">TIC  </tspan></text>
  </g>
</svg>